<svg xmlns="http://www.w3.org/2000/svg" viewBox="0 0 713.5 713.5"><circle cx="356.75" cy="356.75" r="356.75" fill="#34E0A1"/><path d="m577.1 287.15 43.04-46.83h-95.46c-47.8-32.65-105.51-51.66-167.93-51.66a295.7 295.7 0 0 0-167.61 51.66h-95.7l43.04 46.83a131.3 131.3 0 0 0-42.93 97.26c0 72.67 58.92 131.58 131.58 131.58 34.52 0 65.97-13.31 89.45-35.08l42.17 45.92 42.17-45.88a131 131 0 0 0 89.4 35.04C561 515.99 620 457.08 620 384.4a131 131 0 0 0-42.9-97.26m-351.93 186.3c-49.19 0-89.05-39.85-89.05-89.04s39.86-89.05 89.05-89.05 89.05 39.86 89.05 89.05-39.86 89.05-89.05 89.05m131.62-91.63c0-58.6-42.61-108.9-98.85-130.38 30.4-12.72 63.77-19.77 98.8-19.77s68.45 7.05 98.86 19.77c-56.2 21.52-98.81 71.79-98.81 130.38m131.58 91.64c-49.2 0-89.05-39.86-89.05-89.05s39.86-89.05 89.05-89.05 89.04 39.86 89.04 89.05-39.86 89.05-89.04 89.05m0-135.77a46.66 46.66 0 0 0-46.68 46.68 46.66 46.66 0 0 0 46.68 46.68 46.69 46.69 0 0 0 0-93.35m-216.52 46.72a46.67 46.67 0 1 1-93.36 0 46.66 46.66 0 0 1 46.68-46.68 46.64 46.64 0 0 1 46.68 46.68"/></svg>